<svg id="Camada_1" data-name="Camada 1" xmlns="http://www.w3.org/2000/svg" width="496.02" height="244.25" viewBox="0 0 496.02 244.25"><defs><style>.cls-1{fill:#006b33;}.cls-1,.cls-2{fill-rule:evenodd;}.cls-2,.cls-3{fill:#faf200;}</style></defs><path class="cls-1" d="M57,517.9V498.25h6.41a22.9,22.9,0,0,1,4.74.3A5.18,5.18,0,0,1,71,500.47a6.1,6.1,0,0,1,1.14,3.83,6.39,6.39,0,0,1-.65,3,5.52,5.52,0,0,1-1.68,1.94,6,6,0,0,1-2.07.93,23.59,23.59,0,0,1-4.13.28H61v7.41Zm4-16.33v5.6h2.18a10.44,10.44,0,0,0,3.14-.31,2.58,2.58,0,0,0,1.7-2.51,2.56,2.56,0,0,0-.63-1.77,2.85,2.85,0,0,0-1.61-.88,20.66,20.66,0,0,0-2.86-.13ZM78.23,517.9V498.25H82V517.9Zm13.33-9.85-3.43-.61a5.44,5.44,0,0,1,2-3.09,7.37,7.37,0,0,1,4.21-1,9,9,0,0,1,3.78.6,3.75,3.75,0,0,1,1.75,1.52,7.59,7.59,0,0,1,.51,3.36l-.06,4.39a15.42,15.42,0,0,0,.18,2.77,8,8,0,0,0,.68,1.91H97.42c-.1-.25-.22-.61-.36-1.1a3.33,3.33,0,0,0-.14-.44,6.61,6.61,0,0,1-2.07,1.42,6,6,0,0,1-2.35.47A4.91,4.91,0,0,1,89,517.06a3.94,3.94,0,0,1-1.27-3,4,4,0,0,1,.58-2.15A3.69,3.69,0,0,1,90,510.45a13.55,13.55,0,0,1,3-.88,20.77,20.77,0,0,0,3.69-.92v-.38a2,2,0,0,0-.54-1.57,3.3,3.3,0,0,0-2-.46,2.7,2.7,0,0,0-1.58.4,2.8,2.8,0,0,0-.92,1.41Zm5.09,3c-.49.16-1.26.35-2.31.58a7.22,7.22,0,0,0-2.07.65,1.58,1.58,0,0,0-.73,1.33,1.83,1.83,0,0,0,.59,1.37,2.08,2.08,0,0,0,1.51.57,3.37,3.37,0,0,0,2-.66,2.49,2.49,0,0,0,.9-1.25,7.41,7.41,0,0,0,.15-1.84ZM120,517.9H116.2v-7.26a11.24,11.24,0,0,0-.24-3,2.12,2.12,0,0,0-.8-1.05,2.31,2.31,0,0,0-1.33-.37,3.06,3.06,0,0,0-1.78.53,2.67,2.67,0,0,0-1.08,1.42,11.82,11.82,0,0,0-.3,3.27v6.44h-3.78V503.66h3.5v2.09a5.81,5.81,0,0,1,4.76-2.4,6,6,0,0,1,2.3.45,3.83,3.83,0,0,1,1.58,1.14,4,4,0,0,1,.74,1.59,10.9,10.9,0,0,1,.22,2.53Zm5.78-7.3a7.66,7.66,0,0,1,.93-3.63,6.27,6.27,0,0,1,2.64-2.68,7.82,7.82,0,0,1,3.81-.94,7.14,7.14,0,0,1,7.4,7.41,7.37,7.37,0,0,1-2.09,5.37,7.1,7.1,0,0,1-5.28,2.12,8.34,8.34,0,0,1-3.76-.88,6.11,6.11,0,0,1-2.72-2.6,8.62,8.62,0,0,1-.93-4.17Zm3.89.21a4.71,4.71,0,0,0,1,3.24,3.21,3.21,0,0,0,2.5,1.13,3.16,3.16,0,0,0,2.48-1.13,4.76,4.76,0,0,0,1-3.27,4.67,4.67,0,0,0-1-3.22,3.16,3.16,0,0,0-2.48-1.13,3.21,3.21,0,0,0-2.5,1.13,4.72,4.72,0,0,0-1,3.25Zm37.53,7.09h-3.5v-2.09a5.91,5.91,0,0,1-2.08,1.83,5.23,5.23,0,0,1-2.42.61,5.49,5.49,0,0,1-4.24-2,8,8,0,0,1-1.77-5.52,7.91,7.91,0,0,1,1.72-5.51,5.64,5.64,0,0,1,4.35-1.89,5.4,5.4,0,0,1,4.16,2v-7.09h3.78Zm-10.11-7.4a6.55,6.55,0,0,0,.63,3.31,2.86,2.86,0,0,0,2.56,1.48,2.77,2.77,0,0,0,2.22-1.11,5.12,5.12,0,0,0,.92-3.32,5.54,5.54,0,0,0-.89-3.54,2.92,2.92,0,0,0-4.53,0,4.85,4.85,0,0,0-.91,3.19Zm25,2.9,3.79.63a6.16,6.16,0,0,1-2.3,3.15,6.86,6.86,0,0,1-3.93,1.07,6.4,6.4,0,0,1-5.53-2.43,8.07,8.07,0,0,1-1.43-4.91,7.86,7.86,0,0,1,1.87-5.55,6.13,6.13,0,0,1,4.7-2,6.43,6.43,0,0,1,5,2.1q1.85,2.1,1.76,6.44h-9.48a3.82,3.82,0,0,0,.92,2.61,2.86,2.86,0,0,0,2.17.93,2.33,2.33,0,0,0,1.5-.48,3,3,0,0,0,.91-1.55Zm.23-3.82a3.64,3.64,0,0,0-.85-2.49,2.74,2.74,0,0,0-4,.05,3.47,3.47,0,0,0-.8,2.44Zm34.19,8.32h-4.32l-1.71-4.47H202.5l-1.65,4.47h-4.24l7.69-19.65h4.23Zm-7.33-7.8-2.75-7.26-2.67,7.26Zm10.9,3.79,3.82-.57a2.7,2.7,0,0,0,1,1.65,3.31,3.31,0,0,0,2.07.57,3.79,3.79,0,0,0,2.22-.54,1.2,1.2,0,0,0,.49-1,1,1,0,0,0-.27-.71,3,3,0,0,0-1.26-.49c-3.07-.68-5-1.29-5.82-1.85a3.66,3.66,0,0,1-1.71-3.2,4,4,0,0,1,1.47-3.12,6.91,6.91,0,0,1,4.56-1.27,8,8,0,0,1,4.38,1,4.87,4.87,0,0,1,2,2.83l-3.56.66a2.17,2.17,0,0,0-.88-1.28,3.19,3.19,0,0,0-1.84-.45,4.18,4.18,0,0,0-2.16.42.87.87,0,0,0-.43.76.82.82,0,0,0,.38.69A14.57,14.57,0,0,0,228,509a10.77,10.77,0,0,1,4.25,1.68,3.46,3.46,0,0,1,1.19,2.8,4.27,4.27,0,0,1-1.65,3.36,7.32,7.32,0,0,1-4.88,1.41,8.11,8.11,0,0,1-4.64-1.17,5.45,5.45,0,0,1-2.24-3.19Zm18.2,0,3.82-.57a2.73,2.73,0,0,0,1,1.65,3.36,3.36,0,0,0,2.08.57,3.79,3.79,0,0,0,2.22-.54,1.2,1.2,0,0,0,.49-1,1,1,0,0,0-.27-.71,2.94,2.94,0,0,0-1.26-.49c-3.07-.68-5-1.29-5.83-1.85a3.67,3.67,0,0,1-1.7-3.2,4,4,0,0,1,1.47-3.12,6.91,6.91,0,0,1,4.57-1.27,8,8,0,0,1,4.37,1,4.87,4.87,0,0,1,2,2.83l-3.56.66a2.17,2.17,0,0,0-.88-1.28,3.19,3.19,0,0,0-1.84-.45,4.18,4.18,0,0,0-2.16.42.87.87,0,0,0-.43.76.82.82,0,0,0,.38.69A14.74,14.74,0,0,0,246.2,509a10.64,10.64,0,0,1,4.24,1.68,3.43,3.43,0,0,1,1.2,2.8,4.27,4.27,0,0,1-1.65,3.36,7.32,7.32,0,0,1-4.88,1.41,8.11,8.11,0,0,1-4.64-1.17,5.45,5.45,0,0,1-2.24-3.19Zm19.56-12.15v-3.49h3.78v3.49Zm0,16.16V503.66h3.78V517.9Zm9.15-4,3.82-.57a2.73,2.73,0,0,0,1,1.65,3.34,3.34,0,0,0,2.08.57A3.73,3.73,0,0,0,276,515a1.19,1.19,0,0,0,.5-1,1,1,0,0,0-.27-.71,3,3,0,0,0-1.26-.49c-3.07-.68-5-1.29-5.83-1.85a3.67,3.67,0,0,1-1.7-3.2,4,4,0,0,1,1.47-3.12,6.9,6.9,0,0,1,4.56-1.27,8.06,8.06,0,0,1,4.38,1,4.91,4.91,0,0,1,2,2.83l-3.56.66a2.21,2.21,0,0,0-.88-1.28,3.19,3.19,0,0,0-1.84-.45,4.18,4.18,0,0,0-2.16.42.87.87,0,0,0-.43.76.84.84,0,0,0,.37.69,14.72,14.72,0,0,0,3.56,1.06,10.64,10.64,0,0,1,4.24,1.68,3.43,3.43,0,0,1,1.2,2.8,4.27,4.27,0,0,1-1.65,3.36,7.32,7.32,0,0,1-4.88,1.41,8.11,8.11,0,0,1-4.64-1.17,5.41,5.41,0,0,1-2.24-3.19Zm26.11-10.23v3h-2.6v5.76a14.58,14.58,0,0,0,.07,2.05.84.84,0,0,0,.34.48,1.12,1.12,0,0,0,.64.19,5,5,0,0,0,1.53-.36l.32,2.92a7.45,7.45,0,0,1-3,.56,4.71,4.71,0,0,1-1.84-.34,2.59,2.59,0,0,1-1.2-.89,3.43,3.43,0,0,1-.54-1.47,18.56,18.56,0,0,1-.12-2.67v-6.23h-1.74v-3h1.74v-2.83l3.79-2.22v5.05Zm13.77,9.74,3.78.63a6.2,6.2,0,0,1-2.29,3.15,6.87,6.87,0,0,1-3.94,1.07,6.41,6.41,0,0,1-5.53-2.43,8.13,8.13,0,0,1-1.42-4.91,7.86,7.86,0,0,1,1.86-5.55,6.14,6.14,0,0,1,4.71-2,6.4,6.4,0,0,1,5,2.1c1.24,1.4,1.82,3.55,1.77,6.44h-9.48a3.87,3.87,0,0,0,.91,2.61,2.88,2.88,0,0,0,2.18.93,2.32,2.32,0,0,0,1.49-.48,3,3,0,0,0,.92-1.55Zm.22-3.82a3.64,3.64,0,0,0-.85-2.49,2.59,2.59,0,0,0-2-.85,2.63,2.63,0,0,0-2.05.9,3.47,3.47,0,0,0-.79,2.44Zm-7.54-7.76,2.83-3.95h3.49l2.8,3.95h-3.05l-1.55-2-1.46,2Zm30.27,16.08H326v-7.26a11.24,11.24,0,0,0-.24-3,2.11,2.11,0,0,0-.79-1.05,2.33,2.33,0,0,0-1.33-.37,3.06,3.06,0,0,0-1.78.53,2.68,2.68,0,0,0-1.09,1.42,11.93,11.93,0,0,0-.29,3.27v6.44h-3.79V503.66h3.51v2.09a5.81,5.81,0,0,1,4.75-2.4,5.9,5.9,0,0,1,2.3.45,3.83,3.83,0,0,1,1.58,1.14,4.16,4.16,0,0,1,.75,1.59,11.6,11.6,0,0,1,.21,2.53Zm19.16-10-3.73.66a2.66,2.66,0,0,0-.86-1.66,2.62,2.62,0,0,0-1.73-.56,2.82,2.82,0,0,0-2.26,1,4.94,4.94,0,0,0-.85,3.26,5.74,5.74,0,0,0,.86,3.58,2.82,2.82,0,0,0,2.3,1,2.53,2.53,0,0,0,1.76-.61,3.68,3.68,0,0,0,1-2.11l3.74.64A6.57,6.57,0,0,1,346.9,517a6.92,6.92,0,0,1-4.42,1.3,6.57,6.57,0,0,1-5-2,9,9,0,0,1,0-11,6.68,6.68,0,0,1,5.07-2,6.91,6.91,0,0,1,4.16,1.13,6.14,6.14,0,0,1,2.22,3.4Zm5.71-6.14v-3.49h3.79v3.49Zm0,16.16V503.66h3.79V517.9ZM368,508.05l-3.43-.61a5.4,5.4,0,0,1,2-3.09,7.35,7.35,0,0,1,4.21-1,9.1,9.1,0,0,1,3.78.6,3.72,3.72,0,0,1,1.74,1.52,7.59,7.59,0,0,1,.51,3.36l0,4.39a15.42,15.42,0,0,0,.18,2.77,7.55,7.55,0,0,0,.67,1.91h-3.76c-.09-.25-.22-.61-.36-1.1a3.33,3.33,0,0,0-.14-.44,6.61,6.61,0,0,1-2.07,1.42,6,6,0,0,1-2.35.47,4.91,4.91,0,0,1-3.48-1.19,3.94,3.94,0,0,1-1.27-3,4,4,0,0,1,.58-2.15,3.8,3.8,0,0,1,1.62-1.45,13.49,13.49,0,0,1,3-.88,20.36,20.36,0,0,0,3.68-.92v-.38a2,2,0,0,0-.54-1.57,3.3,3.3,0,0,0-2.05-.46,2.64,2.64,0,0,0-1.57.4,2.74,2.74,0,0,0-.93,1.41Zm5.09,3c-.48.16-1.25.35-2.31.58a7,7,0,0,0-2.06.65,1.57,1.57,0,0,0-.74,1.33,1.83,1.83,0,0,0,.59,1.37,2.1,2.1,0,0,0,1.51.57,3.37,3.37,0,0,0,2-.66,2.43,2.43,0,0,0,.9-1.25,7.41,7.41,0,0,0,.15-1.84Zm18,6.81V498.25h13.6v3.32h-9.59v4.67h8.29v3.32h-8.29v8.34Zm22.5-9.85-3.42-.61a5.34,5.34,0,0,1,2-3.09,7.32,7.32,0,0,1,4.21-1,9.16,9.16,0,0,1,3.78.6,3.72,3.72,0,0,1,1.74,1.52,7.59,7.59,0,0,1,.51,3.36l-.06,4.39a15.42,15.42,0,0,0,.18,2.77,8,8,0,0,0,.68,1.91h-3.76c-.09-.25-.22-.61-.36-1.1a3.33,3.33,0,0,0-.14-.44,6.61,6.61,0,0,1-2.07,1.42,6,6,0,0,1-2.35.47,4.91,4.91,0,0,1-3.48-1.19,3.94,3.94,0,0,1-1.27-3,4,4,0,0,1,.58-2.15,3.77,3.77,0,0,1,1.63-1.45,13.22,13.22,0,0,1,3-.88,20.36,20.36,0,0,0,3.68-.92v-.38a2,2,0,0,0-.54-1.57,3.3,3.3,0,0,0-2.05-.46,2.7,2.7,0,0,0-1.58.4,2.8,2.8,0,0,0-.92,1.41Zm5.09,3c-.49.16-1.26.35-2.31.58a7,7,0,0,0-2.06.65,1.58,1.58,0,0,0-.75,1.33,1.84,1.84,0,0,0,.6,1.37,2.1,2.1,0,0,0,1.51.57,3.37,3.37,0,0,0,2-.66,2.43,2.43,0,0,0,.9-1.25,7.41,7.41,0,0,0,.15-1.84Zm10-7.43h3.48v1.94a5.65,5.65,0,0,1,4.46-2.25,4.78,4.78,0,0,1,2.39.57,4.31,4.31,0,0,1,1.66,1.7,6.52,6.52,0,0,1,2-1.7,4.93,4.93,0,0,1,2.33-.57,5.28,5.28,0,0,1,2.67.64,3.93,3.93,0,0,1,1.63,1.87,7.85,7.85,0,0,1,.39,2.95v9.09h-3.78v-8.13a6,6,0,0,0-.39-2.73,1.82,1.82,0,0,0-1.62-.8,2.67,2.67,0,0,0-1.51.48,2.72,2.72,0,0,0-1,1.41,10.34,10.34,0,0,0-.31,2.94v6.83h-3.78v-7.8a11,11,0,0,0-.2-2.67,1.79,1.79,0,0,0-.63-.9,2,2,0,0,0-1.15-.29,2.76,2.76,0,0,0-1.58.46,2.59,2.59,0,0,0-1,1.36,9.64,9.64,0,0,0-.31,2.93v6.91h-3.78Zm27.68-1.92v-3.49h3.78v3.49Zm0,16.16V503.66h3.78V517.9Zm10.5,0V498.25h3.79V517.9Zm10.51-16.16v-3.49h3.79v3.49Zm0,16.16V503.66h3.79V517.9Zm13.33-9.85-3.43-.61a5.39,5.39,0,0,1,2-3.09,7.35,7.35,0,0,1,4.21-1,9.1,9.1,0,0,1,3.78.6,3.72,3.72,0,0,1,1.74,1.52,7.59,7.59,0,0,1,.51,3.36l-.05,4.39a15.42,15.42,0,0,0,.18,2.77,7.55,7.55,0,0,0,.67,1.91h-3.76c-.09-.25-.22-.61-.36-1.1a3.94,3.94,0,0,0-.13-.44,6.76,6.76,0,0,1-2.08,1.42,5.94,5.94,0,0,1-2.35.47,4.91,4.91,0,0,1-3.48-1.19,4.23,4.23,0,0,1-.69-5.16,3.77,3.77,0,0,1,1.63-1.45,13.38,13.38,0,0,1,3-.88,20.36,20.36,0,0,0,3.68-.92v-.38a2,2,0,0,0-.54-1.57,3.25,3.25,0,0,0-2-.46,2.28,2.28,0,0,0-2.5,1.81Zm5.08,3c-.48.16-1.25.35-2.31.58a7,7,0,0,0-2.06.65,1.59,1.59,0,0,0-.74,1.33,1.87,1.87,0,0,0,.59,1.37,2.1,2.1,0,0,0,1.51.57,3.35,3.35,0,0,0,2-.66,2.38,2.38,0,0,0,.9-1.25,7.41,7.41,0,0,0,.15-1.84Zm13.92,6.81h-3.79V503.66h3.51v2A5.93,5.93,0,0,1,511,503.8a3.07,3.07,0,0,1,1.65-.45,4.89,4.89,0,0,1,2.5.71L514,507.35a3.35,3.35,0,0,0-1.78-.62,2.19,2.19,0,0,0-1.36.43,3.08,3.08,0,0,0-.86,1.58,21.59,21.59,0,0,0-.32,4.77Zm0,0" transform="translate(-57 -274)"/><path class="cls-1" d="M466.8,402.51l-24.2-33.09L458,357.13l15.46-11.67,41.36,57.05ZM373.71,274l38.48,52.63,15-10.85,16.45-11.37L421.74,274Zm-8.44,0v90.57L322,402.51V383.76H261.86l36.32-29.4H322V325l-96,77.54H168L326.34,274ZM67.54,402.51l23.82-77.25,8-25.93L107.11,274H216.8c30.83,2.32,43.26,24,34.44,50.6l-40,32.81-9.89.07-75.18-.07-13.51,45.1Zm68.6-77.39,64.49-.15c12.49.29,14-18.39,3.32-18.46h-62.1Zm0,0" transform="translate(-57 -274)"/><path class="cls-2" d="M335.52,402.51l39.64-34.82,18.34-15.06,18-14.33,19-14,20.22-14.41,22.75-15.05,26-16.08L504.2,276l3.67-1.3h2.62l1.45.65,1.07,1.08.35,1.67-.7,3.77-.36,1.73.36,1.67,1.81.65,2.59-.29,6.64-2.75,4.33-2.39,5.13-3.4L535,276h1.07l1.89.73,1,.65h3l.74,1.74,1.15,1,1.81.36,4-.65,1.81-.44,1.52,1.09v1.38l-1.87,2-47.31,29.77L483.71,327l-18.36,13L447,353.71l-18,14.63-18.7,16.14-20.15,18Zm0,0" transform="translate(-57 -274)"/><path class="cls-1" d="M74.6,445.59h8.68a8.72,8.72,0,0,0,5.27-1.52,6.92,6.92,0,0,0,2.75-4.71c.35-2.25,0-3.91-1.08-5a6.72,6.72,0,0,0-4.71-1.6H76.84Zm-8.87-23.17H89.28a24.11,24.11,0,0,1,6.63.87,13.14,13.14,0,0,1,5.21,2.81,11.49,11.49,0,0,1,3,5,16.42,16.42,0,0,1,.13,7.31c-1,5.94-3.31,10.35-6.92,13s-8.25,4.13-13.94,4.13H72.88l-3,16.59H57ZM126.1,444h10.82c4,0,6.29-1.95,7-5.8a4.18,4.18,0,0,0-1.15-4.05,6.9,6.9,0,0,0-4.48-1.38H128.12ZM117,422.42h25.18a24.9,24.9,0,0,1,6.37.8,13.23,13.23,0,0,1,5.12,2.53,9.48,9.48,0,0,1,3.11,4.34,12,12,0,0,1,.29,6.3,18.12,18.12,0,0,1-3.31,7.68,14.81,14.81,0,0,1-6.67,4.84v.15a5.92,5.92,0,0,1,3,1.6,8,8,0,0,1,1.67,2.9,19.52,19.52,0,0,1,.58,3.54,22.56,22.56,0,0,1-.08,3.84l-.07.87c-.14,1.44-.29,2.53-.37,3.18s-.06,1.52-.13,2.54,0,2,.07,2.81a2.77,2.77,0,0,0,.65,1.82H139.6a7,7,0,0,1-.42-2.82c.06-1.24.14-2.68.28-4.28l.08-.79a31.39,31.39,0,0,0,.28-4.06,10.63,10.63,0,0,0-.5-3,4.75,4.75,0,0,0-1.8-2.25,5.87,5.87,0,0,0-3.4-.86h-9.74l-3.2,18.1H108.27Zm53.08,0H183l-8.72,49.74H161.42Zm25.48,0h19l2.68,33.15h.15l14.36-33.15h19L242,472.16H229.88l6.57-37.79h-.15l-17,37.79h-9.81l-3.82-37.79h-.07L199,472.16H186.83Zm83.68,0h13.14l9.75,49.74H288.71l-1.53-8.91H269.92l-4.7,8.91H252Zm-4.7,31.2h11.27l-2.46-17.37h-.07Zm55.84,18.54H315.51l-6.78-49.74h13.42l3.19,37h.14l16.18-37h13.43ZM368,422.42h39.44l-1.81,10.35H379.14l-1.6,8.76h24.27l-1.73,10H375.8L374.16,461h27.21l-1.94,11.15H359.26ZM429.47,444H440.3c4,0,6.27-1.95,6.93-5.8a4.14,4.14,0,0,0-1.09-4.05,6.85,6.85,0,0,0-4.46-1.38H431.41Zm-9.12-21.58h25.21a25.23,25.23,0,0,1,6.36.8,13.37,13.37,0,0,1,5.12,2.53,9.43,9.43,0,0,1,3.12,4.34,12,12,0,0,1,.28,6.3,17.9,17.9,0,0,1-3.32,7.68,14.89,14.89,0,0,1-6.64,4.84v.15a6,6,0,0,1,3,1.6,6.86,6.86,0,0,1,1.59,2.9,15,15,0,0,1,.65,3.54,22.56,22.56,0,0,1-.08,3.84l-.07.87c-.21,1.44-.29,2.53-.36,3.18a23.64,23.64,0,0,0-.14,2.54c0,1.08,0,2,.07,2.81a2.83,2.83,0,0,0,.65,1.82H443a5.06,5.06,0,0,1-.43-2.82c.07-1.24.15-2.68.3-4.28l.06-.79c.15-1.6.29-3,.29-4.06a8.47,8.47,0,0,0-.58-3,4.14,4.14,0,0,0-1.72-2.25,6,6,0,0,0-3.4-.86h-9.75l-3.18,18.1H411.63Zm72.09,0h13.07l9.75,49.74H501.83l-1.55-8.91H483l-4.68,8.91H465.14Zm-4.7,31.2h11.2l-2.39-17.37h-.14Zm0,0" transform="translate(-57 -274)"/><rect class="cls-3" y="211.02" width="458.32" height="2.4"/></svg>